<svg width="65" height="30" viewBox="0 0 65 30" fill="none" xmlns="http://www.w3.org/2000/svg">
<path d="M0 4C0 1.79086 1.79086 0 4 0H53V24H0V4Z" fill="url(#paint0_linear_260_269)"/>
<path d="M9.00219 12.028H12.9742V13.144H9.00219V12.028ZM22.9877 10V11.044H18.9197V14.14C18.9197 14.46 18.9637 14.684 19.0517 14.812C19.1397 14.932 19.3157 14.992 19.5797 14.992C19.8037 14.992 20.0237 14.948 20.2397 14.86C20.4557 14.772 20.6517 14.656 20.8277 14.512C21.0037 14.36 21.1437 14.188 21.2477 13.996C21.3597 13.804 21.4157 13.604 21.4157 13.396C21.4157 13.252 21.3677 13.136 21.2717 13.048C21.1837 12.96 21.0317 12.916 20.8157 12.916C20.6317 12.916 20.4597 12.936 20.2997 12.976L20.1557 12.004C20.2917 11.964 20.4397 11.936 20.5997 11.92C20.7677 11.896 20.9397 11.884 21.1157 11.884C21.5557 11.884 21.9117 11.992 22.1837 12.208C22.4637 12.424 22.6037 12.764 22.6037 13.228C22.6037 13.62 22.5117 13.988 22.3277 14.332C22.1437 14.668 21.8997 14.96 21.5957 15.208C21.2997 15.456 20.9637 15.652 20.5877 15.796C20.2197 15.932 19.8477 16 19.4717 16C19.1597 16 18.8997 15.964 18.6917 15.892C18.4917 15.82 18.3277 15.72 18.1997 15.592C18.1117 15.512 18.0317 15.42 17.9597 15.316C17.8957 15.212 17.8437 15.068 17.8037 14.884C17.7637 14.7 17.7437 14.456 17.7437 14.152V11.044H16.6397V10H22.9877ZM17.3477 7.012C17.5957 7.012 17.8077 7.044 17.9837 7.108C18.1677 7.172 18.3237 7.268 18.4517 7.396C18.6037 7.548 18.7197 7.76 18.7997 8.032C18.8797 8.296 18.9197 8.668 18.9197 9.148V10.084H17.7437V9.196C17.7437 8.948 17.7277 8.74 17.6957 8.572C17.6637 8.404 17.5917 8.276 17.4797 8.188C17.3677 8.1 17.1997 8.056 16.9757 8.056C16.8477 8.056 16.7157 8.076 16.5797 8.116C16.4437 8.148 16.3197 8.184 16.2077 8.224L15.8357 7.324C16.0997 7.22 16.3477 7.144 16.5797 7.096C16.8197 7.04 17.0757 7.012 17.3477 7.012ZM26.2414 15.016C26.8574 14.464 27.4054 13.976 27.8854 13.552C28.3734 13.12 28.7854 12.72 29.1214 12.352C29.4654 11.984 29.7254 11.632 29.9014 11.296C30.0854 10.96 30.1774 10.612 30.1774 10.252C30.1774 9.98 30.1214 9.74 30.0094 9.532C29.8974 9.324 29.7334 9.16 29.5174 9.04C29.3094 8.912 29.0414 8.848 28.7134 8.848C28.3854 8.848 28.0614 8.9 27.7414 9.004C27.4294 9.108 27.1374 9.236 26.8654 9.388L26.4334 8.272C26.7454 8.088 27.1254 7.924 27.5734 7.78C28.0214 7.628 28.5014 7.552 29.0134 7.552C29.5974 7.552 30.0974 7.66 30.5134 7.876C30.9294 8.092 31.2454 8.392 31.4614 8.776C31.6774 9.16 31.7854 9.604 31.7854 10.108C31.7854 10.596 31.6814 11.048 31.4734 11.464C31.2734 11.88 30.9934 12.276 30.6334 12.652C30.2814 13.028 29.8814 13.404 29.4334 13.78C28.9934 14.148 28.5374 14.536 28.0654 14.944L27.8014 14.704H31.9414L31.8694 16H26.2414V15.016ZM35.9637 16.144C35.2917 16.144 34.7237 15.964 34.2597 15.604C33.8037 15.244 33.4597 14.744 33.2277 14.104C32.9957 13.456 32.8797 12.7 32.8797 11.836C32.8797 10.98 32.9957 10.232 33.2277 9.592C33.4597 8.944 33.8037 8.444 34.2597 8.092C34.7237 7.732 35.2917 7.552 35.9637 7.552C36.6437 7.552 37.2117 7.732 37.6677 8.092C38.1237 8.444 38.4637 8.944 38.6877 9.592C38.9197 10.232 39.0357 10.98 39.0357 11.836C39.0357 12.7 38.9197 13.456 38.6877 14.104C38.4637 14.744 38.1237 15.244 37.6677 15.604C37.2117 15.964 36.6437 16.144 35.9637 16.144ZM35.9637 14.884C36.3157 14.884 36.5957 14.772 36.8037 14.548C37.0197 14.316 37.1757 13.976 37.2717 13.528C37.3677 13.072 37.4157 12.508 37.4157 11.836C37.4157 11.172 37.3677 10.616 37.2717 10.168C37.1757 9.712 37.0197 9.372 36.8037 9.148C36.5957 8.916 36.3157 8.8 35.9637 8.8C35.6197 8.8 35.3397 8.916 35.1237 9.148C34.9077 9.372 34.7477 9.712 34.6437 10.168C34.5477 10.616 34.4997 11.172 34.4997 11.836C34.4997 12.508 34.5477 13.072 34.6437 13.528C34.7477 13.976 34.9077 14.316 35.1237 14.548C35.3397 14.772 35.6197 14.884 35.9637 14.884ZM42.9308 16.144C42.2588 16.144 41.6908 15.964 41.2268 15.604C40.7708 15.244 40.4268 14.744 40.1948 14.104C39.9628 13.456 39.8468 12.7 39.8468 11.836C39.8468 10.98 39.9628 10.232 40.1948 9.592C40.4268 8.944 40.7708 8.444 41.2268 8.092C41.6908 7.732 42.2588 7.552 42.9308 7.552C43.6108 7.552 44.1788 7.732 44.6348 8.092C45.0908 8.444 45.4308 8.944 45.6548 9.592C45.8868 10.232 46.0028 10.98 46.0028 11.836C46.0028 12.7 45.8868 13.456 45.6548 14.104C45.4308 14.744 45.0908 15.244 44.6348 15.604C44.1788 15.964 43.6108 16.144 42.9308 16.144ZM42.9308 14.884C43.2828 14.884 43.5628 14.772 43.7708 14.548C43.9868 14.316 44.1428 13.976 44.2388 13.528C44.3348 13.072 44.3828 12.508 44.3828 11.836C44.3828 11.172 44.3348 10.616 44.2388 10.168C44.1428 9.712 43.9868 9.372 43.7708 9.148C43.5628 8.916 43.2828 8.8 42.9308 8.8C42.5868 8.8 42.3068 8.916 42.0908 9.148C41.8748 9.372 41.7148 9.712 41.6108 10.168C41.5148 10.616 41.4668 11.172 41.4668 11.836C41.4668 12.508 41.5148 13.072 41.6108 13.528C41.7148 13.976 41.8748 14.316 42.0908 14.548C42.3068 14.772 42.5868 14.884 42.9308 14.884Z" fill="white"/>
<path d="M53 24H61.7639C63.2507 24 64.2177 22.4354 63.5528 21.1056L53 0V24Z" fill="#D66F00"/>
<path d="M53 0H61.7639C63.2507 0 64.2177 1.56462 63.5528 2.89443L53 24V0Z" fill="#F7B166"/>
<path d="M0 24H4V30L0 24Z" fill="url(#paint1_linear_260_269)"/>
<defs>
<linearGradient id="paint0_linear_260_269" x1="53" y1="24" x2="-1.99253" y2="17.8674" gradientUnits="userSpaceOnUse">
<stop stop-color="#FFA03B"/>
<stop offset="1" stop-color="#F27D00"/>
</linearGradient>
<linearGradient id="paint1_linear_260_269" x1="2" y1="30" x2="2" y2="24" gradientUnits="userSpaceOnUse">
<stop stop-color="#F7B166"/>
<stop offset="1" stop-color="#D66F00"/>
</linearGradient>
</defs>
</svg>
